<?xml version="1.0" encoding="iso-8859-1"?>
<!-- Generator: Adobe Illustrator 16.0.0, SVG Export Plug-In . SVG Version: 6.00 Build 0)  -->
<!DOCTYPE svg PUBLIC "-//W3C//DTD SVG 1.1//EN" "http://www.w3.org/Graphics/SVG/1.1/DTD/svg11.dtd">
<svg version="1.1" id="Capa_1" xmlns="http://www.w3.org/2000/svg" xmlns:xlink="http://www.w3.org/1999/xlink" x="0px" y="0px"
	 width="188.945px" height="188.945px" viewBox="0 0 188.945 188.945" style="enable-background:new 0 0 188.945 188.945;"
	 xml:space="preserve">
<g>
	<g>
		<path d="M64.08,17.477c-8.635-6.437-20.275-4.591-27.333,3.288C25.347,33.49,33.519,58,52.014,52.378
			c6.919-0.332,13.763-4.136,17.547-9.776C74.949,34.57,71.421,22.95,64.08,17.477z"/>
		<path d="M117.675,71c-0.231-1.912-2.081-3.583-4.065-2.168c-4.818,3.435-8.474,8.596-12.718,12.701
			c-3.277,3.169-6.919,6.037-11.327,7.378c-5.632,1.713-9.58-6.036-12.027-9.761c-4.019-6.119-13.911-21.532-19.818-10.002
			c-3.889,7.59-11.685,3.1-15.711-0.846c-2.614-2.563-5.563-5.151-9.472-4.639c-4.793,0.628-7.877,5.311-10.392,8.96
			c-7.086,10.283-13.711,20.651-21.496,30.45c-0.846,1.065-0.789,2.289-0.265,3.209c-0.343,0.809-0.285,1.77,0.484,2.492
			c8.592,8.086,19.941-7.845,28.104-20.11c-0.679,10.765-0.724,21.611-1.256,32.354c-0.405,8.178-1.541,16.297-1.973,24.478
			c-0.568,10.732-0.714,32.557,15.535,29.595c1.245-0.228,2.108-1.579,2.111-2.772c0.017-8.211,0.214-16.415,0.663-24.615
			c0.277-5.061,0.716-10.12,1.492-15.132c0.292-1.886,0.71-3.743,1.194-5.588c0.227-0.835,0.508-1.649,0.844-2.448
			c0.038-0.088,0.055-0.157,0.079-0.233c0.029,0.098,0.056,0.194,0.106,0.315c2.448,5.901,3.183,12.349,3.371,18.942
			c-0.42,2.505-0.399,5.095,0.046,7.617c-0.075,7.236-0.286,14.472,0.842,21.203c0.218,1.3,1.618,2.102,2.821,2.147
			c4.409,0.167,11.239,0.479,13.827-4.128c3.196-5.689,2.104-13.67,1.887-19.871c-0.722-20.681-1.368-41.344-1.874-62.036
			c2.612,2.851,6.274,5.564,8.226,7.258c3.961,3.436,7.523,5.9,12.822,4.443c10.544-2.898,25.274-16.638,28.048-27.362
			C117.928,72.255,117.886,71.592,117.675,71z"/>
		<path d="M185.982,41.741c-6.997-0.07-13.969-0.429-20.932-0.882c0.787-1.538,0.692-3.47,0.805-5.242
			c0.199-3.151,0.167-6.328,0.11-9.484c0.465-3.639-5.762-3.843-5.831,0c-0.051,2.823-0.063,5.644-0.205,8.465
			c-0.099,1.98-0.707,4.043-0.172,5.91c-14.062-1.003-28.097-2.265-42.225-2.385c0.143-0.351,0.24-0.715,0.219-1.079
			c-0.198-3.405-0.444-6.772-0.465-10.195c0.183-3.808-5.906-3.833-5.928,0c-0.012,1.864-0.016,3.728,0.024,5.592
			c0.036,1.671-0.085,3.82,0.559,5.389c0.042,0.102,0.092,0.203,0.142,0.304c-2.004,0.028-4.009,0.074-6.017,0.159
			c-5.859,0.248-14.031,0.218-17.148,6.128c-3.692,7.003-0.792,17.295-0.109,24.706c0.301,3.274,5.051,3.377,5.165,0
			c0.237-7.012-1.386-14.107,0.037-21.062c1.144-5.59,17.571-3.917,21.846-3.92c22.348-0.013,44.432,3.051,66.714,3.553
			c-2.513,20.704-0.683,41.496-0.995,62.302c-18.3,1.169-36.591,0.528-54.887,1.416c-4.875,0.235-31.397,3.131-28.799-5.656
			c1.107-3.748-4.727-5.337-5.83-1.607c-2.893,9.782,6.104,12.651,14.556,13.467c-0.46,4.598-0.886,9.235-1.261,13.891
			c-3.9,0.154-7.78,0.604-11.625,1.627c-2.179,0.579-1.716,3.908,0.528,3.904c3.56-0.008,7.114,0.077,10.666,0.196
			c-0.728,10.524-1.106,21.102-0.801,31.495c0.115,3.906,6.188,3.916,6.07,0c-0.313-10.386,0.806-20.817,1.481-31.227
			c11.626,0.538,23.233,1.342,34.896,1.271c6.092-0.036,12.228-0.16,18.317-0.636c-0.021,0.5-0.037,1-0.059,1.501
			c-0.406,9.753-1.145,19.431-2.294,29.09c-0.208,1.753,1.855,2.994,3.375,2.571c6.174-1.717,4.503-21.959,4.695-26.508
			c0.102-2.413,0.188-4.827,0.266-7.242c1.955-0.239,3.907-0.501,5.864-0.729c0.954-0.11,3.707,0.108,4.28-0.152
			c0.781,0.283,1.68,0.182,2.411-0.593c0.102-0.107,0.203-0.216,0.305-0.322c0.763-0.81,1.061-2.158,0.403-3.137
			c-2.061-3.07-6.045-2.021-9.175-1.658c-1.314,0.152-2.625,0.285-3.937,0.419c0.043-2.438,0.068-4.875,0.054-7.313
			c-0.013-2.082-0.077-4.139-0.262-6.213c-0.028-0.312-0.176-0.722-0.361-1.129c4.707-0.236,9.409-0.511,14.096-0.863
			c1.677-0.126,2.979-1.28,3.023-3.022c0.563-22.422-1.975-44.975,1.325-67.272C189.181,43.643,188.125,41.762,185.982,41.741z
			 M152.779,132.613c-10.368,0.3-20.711,0.128-31.059-0.568c-3.243-0.22-6.487-0.44-9.724-0.545
			c0.19-4.538,0.231-9.069-0.043-13.587c1.219,0.023,2.358,0.022,3.359,0.016c16.753-0.122,33.627-0.252,50.422-0.977
			c-0.314,1.489-0.248,3.207-0.283,4.683c-0.08,3.429-0.195,6.858-0.322,10.288C161.033,132.252,156.929,132.494,152.779,132.613z"
			/>
		<path d="M166.492,67.788c-1.185,2.369-2.132,4.829-3.247,7.214c-1.15-1.768-1.932-3.716-2.582-5.882
			c-0.532-1.776-3.221-2.895-4.555-1.203c-2.197,2.786-3.325,5.706-4.098,8.898c-3.337-4.775-2.88-12.34-4.247-17.727
			c-0.54-2.126-3.996-2.868-4.98-0.651c-3.4,7.66-3.622,16.712-7.01,24.327c-1.626-7.039-1.129-14.47-3.562-21.387
			c-0.494-1.404-2.552-2.361-3.68-0.971c-2.279,2.807-6.328,7.242-6.412,11.011c-0.029,1.269,1.426,1.604,2.225,0.896l0.021,0.034
			c1.604-1.697,2.994-3.596,4.436-5.451c1.126,7.734,0.633,15.579,3.724,23.009c0.675,1.622,3.064,2.949,4.475,1.182
			c4.689-5.877,5.843-12.901,7.42-19.873c1,5.265,2.702,10.122,7.948,13.157c1.396,0.809,3.693,0.143,3.988-1.622
			c0.362-2.167,0.678-4.382,1.332-6.477c1.07,2.029,2.408,3.901,4.146,5.542c1.308,1.233,3.35,0.97,4.3-0.554
			c2.237-3.585,3.668-7.503,5.211-11.425C172.448,67.025,167.825,65.12,166.492,67.788z"/>
	</g>
</g>
<g>
</g>
<g>
</g>
<g>
</g>
<g>
</g>
<g>
</g>
<g>
</g>
<g>
</g>
<g>
</g>
<g>
</g>
<g>
</g>
<g>
</g>
<g>
</g>
<g>
</g>
<g>
</g>
<g>
</g>
</svg>
